inDegrees=no
num_controls=7
num_derivatives=13
num_iterations=106
num_multipliers=7
num_parameters=0
num_slacks=7
num_states=26
objective=4.702118
objective_accelerations=0.605682
objective_balance=0.118921
objective_effort=0.470403
objective_height=3.465180
objective_ligament=0.041932
solver_duration=1950.093473
status=Solve_Succeeded
success=true
DataType=double
version=3
OpenSimVersion=4.4-2022-07-23-0e9fedc
endheader
time	/jointset/ground_pelvis/pelvis_tilt/value	/jointset/ground_pelvis/pelvis_tx/value	/jointset/ground_pelvis/pelvis_ty/value	/jointset/hip_l/hip_flexion_l/value	/jointset/hip_l/hip_adduction_l/value	/jointset/hip_l/hip_rotation_l/value	/jointset/back/lumbar_extension/value	/jointset/patellofemoral_l/patellar_flexion_l/value	/jointset/knee_l/knee_flexion_l/value	/jointset/knee_l/knee_adduction_l/value	/jointset/knee_l/knee_rotation_l/value	/jointset/ankle_l/ankle_angle_l/value	/jointset/subtalar_l/subtalar_angle_l/value	/jointset/ground_pelvis/pelvis_tilt/speed	/jointset/ground_pelvis/pelvis_tx/speed	/jointset/ground_pelvis/pelvis_ty/speed	/jointset/hip_l/hip_flexion_l/speed	/jointset/hip_l/hip_adduction_l/speed	/jointset/hip_l/hip_rotation_l/speed	/jointset/back/lumbar_extension/speed	/jointset/patellofemoral_l/patellar_flexion_l/speed	/jointset/knee_l/knee_flexion_l/speed	/jointset/knee_l/knee_adduction_l/speed	/jointset/knee_l/knee_rotation_l/speed	/jointset/ankle_l/ankle_angle_l/speed	/jointset/subtalar_l/subtalar_angle_l/speed	/forceset/tau_hip_flexion_l	/forceset/tau_hip_adduction_l	/forceset/tau_hip_rotation_l	/forceset/tau_knee_flexion_l	/forceset/tau_ankle_angle_l	/forceset/tau_subtalar_angle_l	/forceset/tau_lumbar_extension	lambda_cid13_p0	lambda_cid13_p1	lambda_cid13_p2	lambda_cid13_p3	lambda_cid13_p4	lambda_cid13_p5	lambda_cid14_p0	/jointset/ground_pelvis/pelvis_tilt/accel	/jointset/ground_pelvis/pelvis_tx/accel	/jointset/ground_pelvis/pelvis_ty/accel	/jointset/hip_l/hip_flexion_l/accel	/jointset/hip_l/hip_adduction_l/accel	/jointset/hip_l/hip_rotation_l/accel	/jointset/back/lumbar_extension/accel	/jointset/patellofemoral_l/patellar_flexion_l/accel	/jointset/knee_l/knee_flexion_l/accel	/jointset/knee_l/knee_adduction_l/accel	/jointset/knee_l/knee_rotation_l/accel	/jointset/ankle_l/ankle_angle_l/accel	/jointset/subtalar_l/subtalar_angle_l/accel	gamma_cid13_p0	gamma_cid13_p1	gamma_cid13_p2	gamma_cid13_p3	gamma_cid13_p4	gamma_cid13_p5	gamma_cid14_p0
0.5	-0.3346422952261706	-0.02866877520071	0.7018641070490276	1.372277317667697	-0.2489581853459668	-0.0285581873960148	-0.3584241330557585	1.117263049245501	1.117263049245472	0.02287670021697748	0.1745283583937548	0.2920820942929402	0.0805794252460651	-0.3456166716561956	-0.1025640114946515	-0.7847361747342354	2.563522433682855	0.05472248729076726	0.3904003914250623	-0.5852186096506395	2.826097185539929	2.826097185539964	0.4776861841748274	5.811648283616306e-06	0.7560879253862166	0.2862373259435732	-0.2139487501737217	0.0114254088149576	-0.01068394610623262	-0.3016418174503489	0.06510630510384519	0.02687900756881909	0.2118745026597575	-16.58474603456658	-7.324109756374894	-0.8859491819793006	-1.410891678963846	-608.1597584095025	-58.63087557427766	-3.066012318809439	1.197720989032409	0.872993618339112	-0.5174365171559685	-2.205931816545342	-0.1908497290865702	-1.083110878285282	2.37412959977439	-2.487572236980279	-2.487572236980341	-0.393385959799772	-0.09916621563558393	-1.72985398518709	-0.3541193964820362	1.693924721458336e-07	-5.768904108359352e-06	-3.360010359507581e-06	-9.029167913149286e-07	-2.962810816787289e-07	-4.411367005642018e-06	-1.052413480674477e-07
0.51	-0.3380377859341534	-0.02965082745839376	0.6939929315572009	1.397798703463589	-0.248421787681681	-0.02471372188154911	-0.3641575956611899	1.14539515204205	1.145395152042032	0.02763638472820586	0.1745282717168057	0.2995545658445639	0.08342154760254067	-0.333417770040079	-0.0938498411478827	-0.7892990728730961	2.540438864585718	0.05253269581910128	0.3785206809586386	-0.5614413398300162	2.799950968261554	2.799950968261541	0.4742173324031169	-1.680051275090912e-05	0.7382801315346565	0.2820854605648049	-0.2207637348709206	0.0120562030330142	-0.01133290222931919	-0.3077815977936313	0.06300012106640918	0.02707593262765198	0.217811043690347	-17.72039947298683	-6.984035879426055	-1.199170852016251	-0.8201280727123754	-615.8063496870349	-58.73795463156474	-2.056491567931984	1.24053873079666	0.8699410146859888	-0.3957959378708401	-2.406936579571565	-0.2359531007845156	-1.236409203198383	2.384411413654034	-2.733991279024914	-2.733991279031974	-0.3293753154969877	0.04794973232038942	-1.825390353463015	-0.4596905885056501	1.961471711694432e-07	-5.371302570000041e-06	-3.369285198459501e-06	-8.694596959900396e-07	-2.764267050336007e-07	-4.379740887513898e-06	-5.879913151440554e-08
0.52	-0.3413093748293829	-0.03054587555824131	0.6860821111888618	1.423079780143868	-0.2479078697810202	-0.0209872550862483	-0.3696523084203223	1.173254623704656	1.173254623704653	0.03236023261580685	0.174528310607958	0.3068451298040071	0.08621935720924248	-0.3208363091081776	-0.08516317992741147	-0.7926651500367493	2.515460610557633	0.0502265345643299	0.3668006475971111	-0.5374686403915021	2.771570958752825	2.771570958752766	0.4705188594457912	3.092527252596145e-05	0.7197064069501978	0.2773747759887781	-0.2275787195680942	0.01268699725101232	-0.0119818583522596	-0.3139213781369116	0.06089393702895182	0.02727285768639855	0.2237475847209682	-18.84455215566197	-6.659976062775057	-1.49385309974778	-0.3190539951138124	-623.2944110033239	-58.86920005635785	-1.260758599221803	1.274232852189163	0.8674917930797524	-0.2780723221144365	-2.584868802734863	-0.2141236857076325	-1.051175457306089	2.413215523352378	-2.934330683051062	-2.934330683051047	-0.4393101969227479	-0.08509862637330258	-1.883040131766579	-0.4658832359336215	2.196241743150642e-07	-4.962648210974799e-06	-3.340746206396775e-06	-8.323772322174353e-07	-2.582018622438982e-07	-4.326888363038193e-06	-1.575780153672822e-08
0.53	-0.3444534521168546	-0.03135429470991065	0.6781436107356137	1.448101964644747	-0.2474173352562291	-0.01737663476565795	-0.3749064141599235	1.200819473534756	1.200819473534749	0.03704601420186512	0.1745284320510234	0.3139463990265089	0.08896757922671579	-0.3079284198938705	-0.07653332792827133	-0.7948334990481337	2.488676556968693	0.04786522787931897	0.3553560143776206	-0.5133388664556797	2.741050528587651	2.741050528587615	0.4666012166045927	-3.474570769570111e-06	0.7004420437383898	0.2721785916491437	-0.2341030390015893	0.01315966655763286	-0.01278660191810429	-0.3204312064264607	0.05877452502214078	0.02740780674244431	0.2293964033130037	-19.98923224896911	-6.307278484764551	-1.790956665092765	0.3270761905988794	-630.8456345441766	-58.97219112928194	-0.6745813257473274	1.306693395230674	0.8586676955166399	-0.1560496817037454	-2.770113476140358	-0.2487429006212395	-1.186338021517336	2.414904489274911	-3.163172355222945	-3.163172355219636	-0.3740006325905326	0.03867019432466139	-1.964117667788999	-0.5589972675721988	2.396458343765737e-07	-4.54527976770002e-06	-3.278640210471654e-06	-7.934191303937084e-07	-2.375637905874636e-07	-4.238776072575848e-06	2.252940860793982e-08
0.54	-0.3474669252243351	-0.03207682818315109	0.6701894600940413	1.472847320641918	-0.2469507355464278	-0.01387950693071706	-0.3799188129280475	1.228068664428811	1.228068664428786	0.04169141749850651	0.1745284656671987	0.320851827966513	0.09166133715387415	-0.2947154731124271	-0.06798604424163239	-0.7957951877016463	2.460094909813082	0.04543957156536422	0.3441021504682602	-0.489127246096764	2.708439171543578	2.708439171543563	0.4624432015685133	1.335989122945607e-05	0.6805383504505417	0.2664819579257554	-0.2406273584350365	0.01363233586426395	-0.01359134548408744	-0.3269410347160152	0.05665511301532455	0.02754275579850402	0.2350452219050881	-21.12420140363934	-5.967038693881669	-2.073791751738551	0.8894223573768535	-638.2664173839095	-59.08764154105203	-0.2855458663228645	1.335244365616248	0.8509781305796439	-0.03674025054003782	-2.944387516069193	-0.2269936114964442	-1.01302159528013	2.429584807970939	-3.352516058831267	-3.35251605883126	-0.4873846358989056	-0.07485176531437397	-2.010906146974379	-0.5659731126843449	2.558445616641728e-07	-4.11827020993639e-06	-3.179396252826437e-06	-7.523858545559732e-07	-2.142557635891127e-07	-4.111652977192113e-06	5.555674149055497e-08
0.55	-0.3503469762234482	-0.03271439549046108	0.6622316870031841	1.497298245325496	-0.2465084846378107	-0.01049360482985851	-0.3846888519755085	1.254981649925774	1.254981649925756	0.04629416175625269	0.1745283223307982	0.3275553028620635	0.09429593284215548	-0.2812606368150669	-0.05954937707224976	-0.795559151656144	2.429808541847503	0.04299950964779926	0.3330846249663973	-0.4648926594573233	2.673829990405334	2.673829990405301	0.4580857295228111	-2.287634909186732e-05	0.6600701911783688	0.2603511693256365	-0.2466631636238348	0.01402338918218099	-0.01453830049805887	-0.333832522221047	0.05472279124844737	0.02755081279890052	0.2402433810655201	-22.20806929182332	-5.571130000705124	-2.376356467657511	1.545318890554624	-645.5759782602096	-59.10580689112735	-0.08167844964371059	1.355739201178031	0.8365710318641727	0.08377704575687457	-3.112958810161909	-0.2536038181686601	-1.145213773739623	2.418581182278059	-3.564324472285782	-3.564324472288575	-0.4133354824811741	0.03563097489780933	-2.077872588507514	-0.6485500031279465	2.515503425430691e-07	-3.439135731596e-06	-2.803572991313189e-06	-6.736253959460194e-07	-1.748621943162509e-07	-3.645464152256303e-06	7.223269853224157e-08
0.5600000000000001	-0.3530914516716995	-0.03326828412172752	0.6542822745755145	1.521437866854762	-0.24609085261562	-0.007217697133258832	-0.3892169080385017	1.281538702545162	1.281538702545142	0.05085264989486254	0.174528544737637	0.3340514758106589	0.09686683699054524	-0.2676003629424462	-0.05125030903292266	-0.7941230550641675	2.397834278947537	0.04051579427895619	0.3221032696205192	-0.4407306492040005	2.637252596028496	2.637252596028444	0.4535919777340923	8.650854213983237e-05	0.6390779610594467	0.253743649947424	-0.2526989688125854	0.01441444250005602	-0.01548525551183978	-0.3407240097260731	0.05279046948155029	0.02755886979923108	0.2454415402260037	-23.28628484021406	-5.183319458338401	-2.6695152074595	2.13297525376775	-652.8098220672213	-59.12823723986018	-0.04234400466607836	1.376331880668207	0.8234583045686639	0.2032718587548108	-3.28196650294679	-0.2357243017520721	-1.005787564083248	2.415069530747269	-3.746158706550248	-3.746158706550222	-0.5146405845022177	-0.04572753900371166	-2.115720316324078	-0.6613192683030265	2.226645877315227e-07	-2.457451348563507e-06	-2.095854565158314e-06	-5.495923180094049e-07	-1.161659743139765e-07	-2.772396451858017e-06	6.928700456481454e-08
0.5700000000000001	-0.3556984071019692	-0.03373992133699746	0.6463531158934902	1.545249647647349	-0.2456978442854174	-0.00404909601425342	-0.3935038019853615	1.307720847474684	1.307720847474684	0.05536417351115469	0.174528834084352	0.3403356000811568	0.09936997399765059	-0.2537701456650517	-0.04310767327941887	-0.7915119227433308	2.364254351003877	0.03808314337162423	0.3116342010793769	-0.4166797452644581	2.598871580971369	2.598871580971305	0.4486798273498039	-1.400822014044515e-05	0.6176823324394177	0.2468124209974452	-0.2583020608278186	0.01471337321371519	-0.01653338452906693	-0.3475646277222212	0.05085826306012182	0.02753222451530768	0.2502269455583653	-24.35365654447433	-4.777870742701446	-2.970583075295415	2.806571265588651	-659.7310804619116	-59.10085379300509	-0.04238416733107938	1.38946499603091	0.8049894358517182	0.3195311156063076	-3.436120652189955	-0.2471560418882118	-1.06487917692664	2.395360060717539	-3.929807765189743	-3.929807765191605	-0.4846149042065217	0.01040454057236734	-2.161223831726208	-0.7192247296417876	2.101629590267234e-07	-1.842624471865092e-06	-1.686029726268676e-06	-4.749110855111567e-07	-7.979713024909387e-08	-2.279369708478059e-06	7.376064022626962e-08
0.58	-0.3581664406905031	-0.03413106754970988	0.6384559679740461	1.568717606218094	-0.2453291865756155	-0.0009846681162426912	-0.3975511350457893	1.333510035281655	1.333510035281666	0.05982555309590826	0.1745286419205121	0.3464038201260781	0.1018017587109968	-0.2398159945974442	-0.03515210852141657	-0.7877209025481424	2.32906983457565	0.03564567019772683	0.3012686254263511	-0.3928184719185367	2.558661171518411	2.558661171518334	0.4435631714129336	-9.793565918741657e-06	0.5958971159440353	0.2394731911956049	-0.2639051528429852	0.0150123039273183	-0.01758151354599592	-0.3544052457183596	0.04892605663866648	0.02750557923129359	0.2550123508907973	-25.43165364134396	-4.367957788709377	-3.275339622223542	3.482709826107037	-666.7860404231702	-59.08749883568863	-0.04236091612729549	1.401118638710676	0.7860441054684756	0.4392494336252167	-3.602884199860223	-0.2366887550651399	-0.9850889864600112	2.377143412022981	-4.112037585716469	-4.112037585716445	-0.5555416950185635	-0.024781255703272	-2.19363789139458	-0.7429194386752842	2.189987968795475e-07	-1.705565510392438e-06	-1.664159326608171e-06	-4.645020238163605e-07	-7.250579903290667e-08	-2.281280025401027e-06	8.789665866022182e-08
0.59	-0.3604945290263049	-0.0344436566853486	0.6306025517342633	1.591825971701508	-0.2449847668803554	0.001976952713829267	-0.4013609528442115	1.358888312345442	1.358888312345464	0.06423467007965644	0.1745285782467268	0.3522525423331061	0.1041583943800403	-0.2257992822400262	-0.027402492891175	-0.7827720702640226	2.29235318500414	0.03324485919212701	0.2910902465658781	-0.3691963126741025	2.516715889340393	2.516715889340349	0.438215182324826	-4.552848477086816e-06	0.573810093549713	0.2318024870946121	-0.2688876940142901	0.01520387819839318	-0.01870386602140487	-0.3611258706228315	0.04726589494312933	0.02743846124170624	0.2592470098728689	-26.39355603218556	-3.954057966395434	-3.588424151639193	4.111470596947666	-673.2944309326417	-59.02994379948714	-0.04227383332704836	1.402320792717428	0.7638124685785782	0.5512277506993393	-3.74354929810556	-0.2405249556601974	-1.028976420177254	2.3470684440635	-4.277545554363342	-4.277545554358574	-0.5313010123948266	0.01335218682665054	-2.221860981363666	-0.7864140410403321	2.238939113440115e-07	-1.572569560502313e-06	-1.622332723789083e-06	-4.508991767709031e-07	-6.678575846327403e-08	-2.264413581445168e-06	9.865093160866317e-08
